<svg width="50" height="50" viewBox="0 0 50 50" fill="none" xmlns="http://www.w3.org/2000/svg">
<path fill-rule="evenodd" clip-rule="evenodd" d="M16.9962 11C19.7601 11 21.8859 13.1802 21.8859 15.9451C21.8859 18.7637 19.813 20.8908 16.9962 20.8908C14.1793 20.8908 12 18.7637 12 15.9451C12 13.1802 14.1793 11 16.9962 11Z" fill="#0336FF"/>
<path fill-rule="evenodd" clip-rule="evenodd" d="M32.8357 11C35.5996 11 37.7254 13.1802 37.7254 15.9451C37.7254 18.7637 35.6526 20.8908 32.8357 20.8908C30.0189 20.8908 27.8395 18.7637 27.8395 15.9451C27.8395 13.1802 30.0189 11 32.8357 11Z" fill="#0336FF"/>
<path fill-rule="evenodd" clip-rule="evenodd" d="M34.9729 24.6064C34.4778 24.3435 33.9107 24.1951 33.2976 24.1951C32.6732 24.1951 32.0906 24.3435 31.5843 24.6064C30.5827 25.1322 29.8784 26.1112 29.73 27.2806C29.7262 27.376 29.7148 27.4712 29.7034 27.5663V27.5815C29.3797 30.1872 27.3843 31.875 24.8601 31.875C22.1224 31.875 20.1273 30.0958 19.8873 27.3798H19.8835C19.7656 26.1683 19.0688 25.1474 18.0599 24.6064C17.5648 24.3435 16.9974 24.1951 16.3843 24.1951C15.7599 24.1951 15.1813 24.3435 14.6748 24.6064C13.54 25.2007 12.79 26.378 12.79 27.7531C12.79 27.8178 12.79 27.8787 12.7938 27.9434C12.7938 27.9624 12.7976 27.9853 12.7976 28.0046C12.8053 28.0807 12.8129 28.1568 12.8243 28.233C12.8395 28.3395 12.8547 28.4426 12.8737 28.5453C13.837 34.5872 18.608 38.4691 24.8601 38.4691C28.2906 38.4691 31.3063 37.2462 33.4612 35.1054C35.1938 33.3872 36.374 31.0749 36.774 28.3322C36.774 28.3246 36.7778 28.3132 36.7778 28.3017C36.8044 28.1264 36.8158 27.9396 36.8158 27.7531C36.8158 26.378 36.0811 25.2007 34.9729 24.6064Z" fill="#0336FF"/>
</svg>
