<svg width="100" height="100" viewBox="0 0 30 30" fill="none" xmlns="http://www.w3.org/2000/svg">
<path d="M12.7642 15.1364V13.3171C13.0769 13.4308 13.3612 13.6298 13.5886 13.9141L13.816 14.2268L14.5551 13.3455L14.413 13.1465C14.015 12.6348 13.4464 12.2937 12.7926 12.18V11.2703H11.7976V12.18C10.7458 12.3505 10.0351 13.1181 10.0351 14.1415C10.0351 15.4207 11.0017 15.8187 11.7976 16.0745V18.1782C11.2575 18.036 10.888 17.6665 10.7174 17.4391L10.49 17.1264L9.7793 18.036L9.92143 18.2066C10.3763 18.8036 11.0301 19.2016 11.7976 19.3153V20.1965H12.7926V19.3153C14.1287 19.0879 14.612 18.0929 14.612 17.2401C14.5835 15.8471 13.5317 15.3923 12.7642 15.1364ZM11.7692 14.8237C11.286 14.6247 11.1154 14.4257 11.1154 14.113C11.1154 13.7151 11.3712 13.4308 11.7692 13.2886V14.8237ZM12.7642 18.1782V16.4157C13.2759 16.6431 13.4464 16.8705 13.4464 17.2685C13.4749 17.4959 13.3896 18.0076 12.7642 18.1782Z" fill="#2C5597"/>
<path fill-rule="evenodd" clip-rule="evenodd" d="M7.67542 4.07812H24.0497C26.3807 4.07812 28.3138 5.98277 28.2854 8.34225V12.2499C27.7669 11.8764 27.2048 11.5597 26.6081 11.3089V8.34225C26.6081 6.92087 25.471 5.78377 24.0497 5.78377H7.70385C6.59518 5.78377 5.62864 6.49446 5.28751 7.48942H20.6384C22.6609 7.48942 24.3492 8.88888 24.7902 10.7747C24.3081 10.6901 23.8121 10.646 23.3058 10.646C23.1916 10.646 23.078 10.6482 22.9649 10.6526C22.562 9.77255 21.6759 9.16665 20.6384 9.16665H19.4444V9.39407C19.4444 10.0999 19.6591 10.7549 20.0249 11.2999C19.4924 11.5221 18.9872 11.7966 18.5158 12.1172C18.0238 11.3275 17.7388 10.3942 17.7388 9.39407V9.16665H7.16373V9.39407C7.16373 12.2368 4.8611 14.5394 2.01835 14.5394H1.70565V16.4157H2.01835C4.8611 16.4157 7.16373 18.7183 7.16373 21.561V21.7885H15.1857C15.3754 22.3781 15.6276 22.9398 15.9344 23.4657H4.26412C1.90464 23.4657 0 21.561 0 19.2016V11.7535C0 9.67834 1.50666 7.94426 3.49658 7.57471C3.86614 5.58478 5.60022 4.07812 7.67542 4.07812ZM5.45808 9.19507H4.26412C2.87118 9.19507 1.70565 10.3322 1.70565 11.782V12.8622H2.01835C3.92299 12.8622 5.45808 11.2987 5.45808 9.42249V9.19507ZM1.70565 18.1213V19.2016C1.70565 20.6229 2.87118 21.76 4.26412 21.7885H5.45808V21.561C5.45808 19.6564 3.89457 18.1213 2.01835 18.1213H1.70565Z" fill="#2C5597"/>
<circle cx="23.218" cy="19.1399" r="6.23525" stroke="#2C5597" stroke-width="1.09347"/>
<path d="M23.3059 15.8164V22.5324" stroke="#2C5597" stroke-width="1.06722" stroke-linecap="round" stroke-linejoin="round"/>
<path d="M26.664 19.1744H19.948" stroke="#2C5597" stroke-width="1.06722" stroke-linecap="round" stroke-linejoin="round"/>
</svg>
