<svg width="100" height="100" viewBox="0 0 30 30" fill="none" xmlns="http://www.w3.org/2000/svg">
<path d="M21.9805 2.4122L21.9805 2.41215C21.6534 1.84189 21.1247 1.43392 20.4923 1.2646L20.4923 1.26459C19.8629 1.09641 19.2044 1.18479 18.6412 1.51263L18.6756 1.57183L18.6412 1.51264L6.8892 8.35441H4.84088C3.48445 8.35441 2.38146 9.45734 2.38146 10.8138V25.1593C2.38146 26.5157 3.48439 27.6187 4.84088 27.6187H25.1636C26.5201 27.6187 27.623 26.5158 27.623 25.1593V21.5104C28.3195 21.2416 28.8185 20.5713 28.8185 19.7797V16.1934C28.8185 15.4018 28.3195 14.7315 27.623 14.4627V10.8138C27.623 9.53618 26.6416 8.49562 25.3956 8.37708L21.9805 2.4122ZM19.3119 2.66417L19.312 2.66409C19.5664 2.51517 19.8634 2.47563 20.1476 2.55151C20.414 2.62282 20.6393 2.78748 20.7897 3.01858L11.6249 8.35441H9.53744L19.3119 2.66417ZM22.6373 6.24193L23.8467 8.35441H19.0088L22.6373 6.24193ZM21.4533 4.17394L21.9753 5.08564L16.3606 8.35441H14.273L21.4533 4.17394ZM26.2906 25.1593C26.2906 25.7804 25.7848 26.2862 25.1636 26.2862H4.84088C4.21971 26.2862 3.71393 25.7804 3.71393 25.1593V10.8138C3.71393 10.1927 4.21971 9.68688 4.84088 9.68688H25.1636C25.7848 9.68688 26.2906 10.1927 26.2906 10.8138V14.3317H22.7727C20.7572 14.3317 19.1178 15.9711 19.1178 17.9866C19.1178 20.002 20.7572 21.6414 22.7727 21.6414H26.2906V25.1593ZM27.4861 19.7797C27.4861 20.0717 27.2488 20.309 26.9568 20.309H22.7727C21.4919 20.309 20.4503 19.2674 20.4503 17.9866C20.4503 16.7058 21.4919 15.6641 22.7727 15.6641H26.9568C27.2488 15.6641 27.4861 15.9014 27.4861 16.1934V19.7797Z" fill="#2C5597" stroke="#2C5597" stroke-width="0.136981"/>
<path d="M21.5087 17.9866C21.5087 17.2898 22.0758 16.7226 22.7726 16.7226C23.4695 16.7226 24.0366 17.2897 24.0365 17.9866H21.5087ZM21.5087 17.9866C21.5087 18.6834 22.0758 19.2505 22.7726 19.2505M21.5087 17.9866L22.7726 19.2505M22.7726 19.2505C23.4694 19.2505 24.0365 18.6834 24.0365 17.9866L22.7726 19.2505Z" fill="#2C5597" stroke="#2C5597" stroke-width="0.136981"/>
</svg>
