<svg width="100" height="100" viewBox="0 0 30 30" fill="none" xmlns="http://www.w3.org/2000/svg">
<path d="M4.6875 12.4212V26.2494C4.6875 26.498 4.78627 26.7365 4.96209 26.9123C5.1379 27.0881 5.37636 27.1869 5.625 27.1869H11.25V19.2181C11.25 18.8451 11.3982 18.4875 11.6619 18.2237C11.9256 17.96 12.2833 17.8119 12.6562 17.8119H17.3437C17.7167 17.8119 18.0744 17.96 18.3381 18.2237C18.6018 18.4875 18.75 18.8451 18.75 19.2181V27.1869H24.375C24.6236 27.1869 24.8621 27.0881 25.0379 26.9123C25.2137 26.7365 25.3125 26.498 25.3125 26.2494V12.4212" stroke="white" stroke-width="1.5" stroke-linecap="round" stroke-linejoin="round"/>
<path d="M28.125 15.001L15.6381 3.04787C15.3451 2.73849 14.6602 2.73498 14.3619 3.04787L1.875 15.001" stroke="white" stroke-width="1.5" stroke-linecap="round" stroke-linejoin="round"/>
<path d="M23.4373 10.4879V3.74966H20.6248V7.79263" stroke="white" stroke-width="1.5" stroke-linecap="round" stroke-linejoin="round"/>
</svg>
