<svg width="185" height="43" viewBox="0 0 185 43" fill="none" xmlns="http://www.w3.org/2000/svg">
<path fill-rule="evenodd" clip-rule="evenodd" d="M28.4479 10.0832C30.6327 10.0832 32.3132 11.7962 32.3132 13.9687C32.3132 16.1833 30.6746 17.8546 28.4479 17.8546C26.2211 17.8546 24.4983 16.1833 24.4983 13.9687C24.4983 11.7962 26.2211 10.0832 28.4479 10.0832Z" fill="white"/>
<path fill-rule="evenodd" clip-rule="evenodd" d="M40.9691 10.0832C43.154 10.0832 44.8344 11.7962 44.8344 13.9687C44.8344 16.1833 43.1958 17.8546 40.9691 17.8546C38.7423 17.8546 37.0195 16.1833 37.0195 13.9687C37.0195 11.7962 38.7423 10.0832 40.9691 10.0832Z" fill="white"/>
<path fill-rule="evenodd" clip-rule="evenodd" d="M42.6587 20.774C42.2673 20.5674 41.819 20.4508 41.3343 20.4508C40.8407 20.4508 40.3801 20.5674 39.9799 20.774C39.1881 21.1871 38.6313 21.9564 38.5141 22.8751C38.5111 22.9501 38.502 23.0249 38.493 23.0996V23.1116C38.2372 25.1589 36.6598 26.485 34.6644 26.485C32.5001 26.485 30.923 25.0871 30.7333 22.9531H30.7303C30.6371 22.0012 30.0863 21.1991 29.2887 20.774C28.8973 20.5674 28.4488 20.4508 27.9641 20.4508C27.4705 20.4508 27.0132 20.5674 26.6127 20.774C25.7157 21.241 25.1228 22.1659 25.1228 23.2464C25.1228 23.2972 25.1228 23.3451 25.1258 23.3959C25.1258 23.4109 25.1288 23.4288 25.1288 23.444C25.1348 23.5038 25.1408 23.5636 25.1499 23.6234C25.1619 23.7072 25.1739 23.7881 25.189 23.8689C25.9505 28.6161 29.722 31.6661 34.6644 31.6661C37.3762 31.6661 39.7602 30.7052 41.4637 29.0232C42.8333 27.6732 43.7662 25.8563 44.0825 23.7014C44.0825 23.6954 44.0855 23.6864 44.0855 23.6775C44.1065 23.5397 44.1155 23.3929 44.1155 23.2464C44.1155 22.1659 43.5347 21.241 42.6587 20.774Z" fill="white"/>
<mask id="mask0_3_141" style="mask-type:alpha" maskUnits="userSpaceOnUse" x="178" y="10" width="7" height="8">
<path fill-rule="evenodd" clip-rule="evenodd" d="M178.138 10.7355H184.682V17.2431H178.138V10.7355Z" fill="white"/>
</mask>
<g mask="url(#mask0_3_141)">
<path fill-rule="evenodd" clip-rule="evenodd" d="M181.389 14.0184H180.918V13.1315H181.39C181.966 13.1315 181.966 13.4588 181.966 13.5663C181.966 13.6781 181.966 14.0184 181.389 14.0184ZM182.599 13.5661C182.599 12.9092 182.136 12.5012 181.389 12.5012H180.284V15.4775H180.918V14.648H181.39C181.417 14.648 181.447 14.6474 181.477 14.6459L182.087 15.4775H182.872L182.129 14.4643C182.432 14.2757 182.599 13.9574 182.599 13.5661ZM181.409 16.3474C180.102 16.3474 179.038 15.2896 179.038 13.9891C179.038 12.6888 180.102 11.6308 181.409 11.6308C182.717 11.6308 183.781 12.6888 183.781 13.9891C183.781 15.2896 182.717 16.3474 181.409 16.3474ZM181.41 10.7355C179.606 10.7355 178.138 12.1951 178.138 13.9893C178.138 15.7835 179.606 17.2431 181.41 17.2431C183.214 17.2431 184.682 15.7835 184.682 13.9893C184.682 12.1951 183.214 10.7355 181.41 10.7355Z" fill="white"/>
</g>
<mask id="mask1_3_141" style="mask-type:alpha" maskUnits="userSpaceOnUse" x="0" y="0" width="22" height="32">
<path fill-rule="evenodd" clip-rule="evenodd" d="M0.317627 0H21.844V31.5485H0.317627V0Z" fill="white"/>
</mask>
<g mask="url(#mask1_3_141)">
<path fill-rule="evenodd" clip-rule="evenodd" d="M16.7864 21.0322C16.7864 17.9982 14.2785 15.5457 11.269 15.5457C8.21775 15.5457 5.75147 17.9982 5.75147 21.0322C5.75147 24.0666 8.21775 26.5189 11.269 26.5189C14.2785 26.5189 16.7864 24.0666 16.7864 21.0322ZM21.8441 21.0322C21.8441 26.8515 17.0791 31.5485 11.269 31.5485C9.05366 31.5485 6.96374 30.8835 5.29185 29.7195C4.95739 30.7173 3.99609 31.4652 2.86746 31.4652C1.44626 31.4652 0.317627 30.3431 0.317627 28.9714V2.53538C0.317627 1.16396 1.44626 -3.05176e-05 2.86746 -3.05176e-05C4.24678 -3.05176e-05 5.37541 1.16396 5.37541 2.53538V12.262C7.08919 11.1811 9.09555 10.5161 11.269 10.5161C17.0791 10.5161 21.8441 15.2131 21.8441 21.0322Z" fill="white"/>
</g>
<path fill-rule="evenodd" clip-rule="evenodd" d="M58.0011 31.4653C55.2422 31.4653 52.6926 30.426 50.7281 28.5556C48.7218 26.6023 47.5931 24.025 47.5096 21.2401C47.4677 18.4969 48.4711 15.8365 50.4772 13.8417C52.4 11.8463 54.9915 10.724 57.792 10.6409C60.5926 10.5995 63.226 11.6383 65.2323 13.592C66.2355 14.5063 66.2774 16.1274 65.3159 17.0836C64.3546 18.0812 62.7663 18.1226 61.7631 17.1669C60.718 16.1689 59.3387 15.6288 57.8758 15.6288C56.4127 15.6288 55.0753 16.2522 54.0302 17.2914C53.0687 18.3304 52.4838 19.7023 52.5255 21.157C52.5255 22.5703 53.1525 23.9836 54.1974 24.9397C55.2422 25.9788 56.6217 26.519 58.0429 26.4776C59.4223 26.4776 60.718 25.9371 61.7212 25.0226C62.6827 24.0667 64.3127 24.1498 65.2323 25.1476C66.1938 26.145 66.1101 27.7244 65.1069 28.6806C63.226 30.426 60.7599 31.4238 58.1684 31.4653H58.0011Z" fill="white"/>
<path fill-rule="evenodd" clip-rule="evenodd" d="M86.2996 30.7172C85.798 31.2158 85.0874 31.5069 84.4184 31.5069C83.7916 31.5069 83.2064 31.2991 82.7049 30.8417L74.1778 23.0275V29.2206C74.1778 30.6339 73.0492 31.7564 71.628 31.7564C70.2068 31.7564 69.0784 30.6339 69.0784 29.2206V2.74334C69.0784 1.33006 70.2068 0.207504 71.628 0.207504C73.0492 0.207504 74.1778 1.33006 74.1778 2.74334V16.7926L82.4123 11.1395C83.5826 10.3498 85.1709 10.5995 85.9651 11.7631C86.8009 12.8852 86.5086 14.4647 85.3799 15.2961L78.3996 19.993L86.1741 27.1009C87.1773 28.057 87.2608 29.6363 86.2996 30.7172Z" fill="white"/>
<path fill-rule="evenodd" clip-rule="evenodd" d="M95.9971 31.673C93.322 31.673 90.6467 30.5923 89.2674 29.304C88.2642 28.3893 88.1807 26.81 89.142 25.8124C90.0616 24.7732 91.6501 24.7315 92.6531 25.646C93.4056 26.3526 96.2061 27.3086 97.7944 26.2696C98.2125 26.0203 98.4634 25.5629 98.4634 25.1056C98.4634 24.5237 97.9616 24.108 97.5438 23.942C97.1674 23.7341 96.4987 23.7341 95.7464 23.7341C94.7432 23.7341 93.6146 23.6923 92.4441 23.2766C90.2706 22.5701 88.5151 20.3257 88.348 18.1641C88.139 15.5456 89.2674 13.9245 90.2289 13.01C92.3189 11.0979 95.3701 10.8067 97.5854 11.181C99.2575 11.4721 100.511 12.0538 101.556 13.01C102.559 13.9245 102.643 15.5042 101.723 16.5015C101.18 17.0834 100.386 17.3741 99.5918 17.2913C99.2157 17.2496 98.8397 17.1251 98.5051 16.917C97.9199 16.5015 97.5019 16.2106 96.7494 16.0858C95.4955 15.878 93.1547 15.9613 93.322 17.7484C93.3637 17.9565 93.7401 18.4967 94.0743 18.6212C94.4923 18.746 95.1192 18.746 95.7881 18.746C96.875 18.7879 98.2541 18.7879 99.6335 19.411C101.932 20.4504 103.437 22.6949 103.437 25.1056C103.437 27.2257 102.35 29.2207 100.553 30.4261C99.1319 31.3406 97.5854 31.673 95.9971 31.673Z" fill="white"/>
<path fill-rule="evenodd" clip-rule="evenodd" d="M120.742 21.032C120.742 18.164 118.359 15.8364 115.517 15.8364C112.633 15.8364 110.251 18.164 110.251 21.032C110.251 23.9 112.633 26.1863 115.517 26.1863C118.359 26.1863 120.742 23.9 120.742 21.032ZM126.552 13.1762V29.0961C126.552 30.3844 125.507 31.4651 124.128 31.4651C122.748 31.4651 121.912 30.3844 121.912 29.0961V28.5971C120.115 30.1351 118.025 31.0496 115.517 31.0496C109.916 31.0496 105.402 26.5605 105.402 21.0321C105.402 15.5041 109.916 10.9731 115.517 10.9731C118.025 10.9731 120.115 11.9293 121.912 13.384V13.1762C121.912 11.8878 122.748 10.8069 124.128 10.8069C125.507 10.8069 126.552 11.8878 126.552 13.1762Z" fill="white"/>
<path fill-rule="evenodd" clip-rule="evenodd" d="M147.034 21.24C147.034 18.2056 144.526 15.7533 141.516 15.7533C138.465 15.7533 135.999 18.2056 135.999 21.24C135.999 24.2744 138.465 26.7267 141.516 26.7267C144.526 26.7267 147.034 24.2744 147.034 21.24ZM152.092 21.24C152.092 27.0593 147.327 31.7563 141.516 31.7563C139.343 31.7563 137.337 31.0913 135.623 30.0104V39.737C135.623 41.1503 134.494 42.2724 133.115 42.2724C131.694 42.2724 130.565 41.1503 130.565 39.737V13.3007C130.565 11.9293 131.694 10.8069 133.115 10.8069C134.243 10.8069 135.205 11.5552 135.539 12.5528C137.211 11.389 139.301 10.7238 141.516 10.7238C147.327 10.7238 152.092 15.4208 152.092 21.24Z" fill="white"/>
<path fill-rule="evenodd" clip-rule="evenodd" d="M171.361 21.24C171.361 18.2056 168.853 15.7533 165.843 15.7533C162.792 15.7533 160.326 18.2056 160.326 21.24C160.326 24.2744 162.792 26.7267 165.843 26.7267C168.853 26.7267 171.361 24.2744 171.361 21.24ZM176.419 21.24C176.419 27.0593 171.654 31.7563 165.843 31.7563C163.67 31.7563 161.664 31.0913 159.95 30.0104V39.737C159.95 41.1503 158.821 42.2724 157.442 42.2724C156.021 42.2724 154.892 41.1503 154.892 39.737V13.3007C154.892 11.9293 156.021 10.8069 157.442 10.8069C158.571 10.8069 159.532 11.5552 159.866 12.5528C161.538 11.389 163.628 10.7238 165.843 10.7238C171.654 10.7238 176.419 15.4208 176.419 21.24Z" fill="white"/>
</svg>
